<svg width="16" height="16" viewBox="0 0 16 16" fill="none" xmlns="http://www.w3.org/2000/svg">
<path d="M8.65007 15.5499C7.00007 15.5499 5.37507 15.0249 4.05007 13.9999C2.27507 12.6499 1.20007 10.5999 1.07507 8.34993C0.925073 5.62493 2.37507 2.94993 4.72507 1.52493C6.07507 0.72493 7.55007 0.34993 9.10007 0.44993C9.42507 0.47493 9.70007 0.67493 9.80007 0.97493C9.90007 1.27493 9.85007 1.59993 9.62507 1.82493C8.30007 3.14993 7.75007 5.04993 8.15007 6.87493C8.75007 9.59993 11.3001 11.4499 14.0751 11.1749C14.4001 11.1499 14.7001 11.2999 14.8501 11.5749C15.0001 11.8499 15.0001 12.1749 14.8001 12.4249C13.7001 13.9249 12.1001 14.9749 10.2751 15.3749C9.72507 15.4999 9.17507 15.5499 8.65007 15.5499ZM8.32507 1.57493C7.27507 1.62493 6.25007 1.92493 5.30007 2.49993C3.30007 3.69993 2.07507 5.97493 2.20007 8.27493C2.30007 10.1999 3.22507 11.9499 4.72507 13.0999C6.22507 14.2499 8.17507 14.6749 10.0251 14.2749C11.3501 13.9999 12.5251 13.2999 13.4251 12.2999C10.3751 12.2749 7.70007 10.1249 7.02507 7.09993C6.60007 5.14993 7.07507 3.12493 8.32507 1.57493Z" fill="url(#paint0_linear_404_5372)"/>
<mask id="path-2-inside-1_404_5372" fill="white">
<path d="M4.5 2L9 1L7 5L9.5 10.5L14 12L12.5 14L8 15L3 12.5L1.5 6.5L4.5 2Z"/>
</mask>
<path d="M9 1L97.5483 45.2741L190.567 -140.763L-12.4761 -95.6425L9 1ZM4.5 2L-16.9761 -94.6425L-55.8077 -86.0133L-77.873 -52.9153L4.5 2ZM1.5 6.5L-80.873 -48.4153L-105.166 -11.976L-94.5441 30.511L1.5 6.5ZM3 12.5L-93.0441 36.511L-82.0006 80.6851L-41.2741 101.048L3 12.5ZM8 15L-36.2741 103.548L-4.83591 119.267L29.4761 111.643L8 15ZM12.5 14L33.9761 110.643L69.7265 102.698L91.7 73.4L12.5 14ZM14 12L93.2 71.4L175.613 -38.4841L45.3065 -81.9196L14 12ZM9.5 10.5L-80.6263 51.4665L-62.762 90.7678L-21.8065 104.42L9.5 10.5ZM7 5L-81.5483 -39.2741L-102.67 2.96977L-83.1263 45.9665L7 5ZM-12.4761 -95.6425L-16.9761 -94.6425L25.9761 98.6425L30.4761 97.6425L-12.4761 -95.6425ZM-77.873 -52.9153L-80.873 -48.4153L83.873 61.4153L86.873 56.9153L-77.873 -52.9153ZM-94.5441 30.511L-93.0441 36.511L99.0441 -11.511L97.5441 -17.511L-94.5441 30.511ZM-41.2741 101.048L-36.2741 103.548L52.2741 -73.5483L47.2741 -76.0483L-41.2741 101.048ZM29.4761 111.643L33.9761 110.643L-8.97612 -82.6425L-13.4761 -81.6425L29.4761 111.643ZM91.7 73.4L93.2 71.4L-65.2 -47.4L-66.7 -45.4L91.7 73.4ZM45.3065 -81.9196L40.8065 -83.4196L-21.8065 104.42L-17.3065 105.92L45.3065 -81.9196ZM99.6263 -30.4665L97.1263 -35.9665L-83.1263 45.9665L-80.6263 51.4665L99.6263 -30.4665ZM95.5483 49.2741L97.5483 45.2741L-79.5483 -43.2741L-81.5483 -39.2741L95.5483 49.2741Z" fill="url(#paint1_linear_404_5372)" mask="url(#path-2-inside-1_404_5372)"/>
<defs>
<linearGradient id="paint0_linear_404_5372" x1="1.06445" y1="0.434082" x2="18.2275" y2="8.98727" gradientUnits="userSpaceOnUse">
<stop stop-color="#2C6DFF"/>
<stop offset="1" stop-color="#336BE9"/>
</linearGradient>
<linearGradient id="paint1_linear_404_5372" x1="1.5" y1="1" x2="17.1174" y2="8.56092" gradientUnits="userSpaceOnUse">
<stop stop-color="#2C6DFF"/>
<stop offset="1" stop-color="#336BE9"/>
</linearGradient>
</defs>
</svg>
